<svg xmlns="http://www.w3.org/2000/svg" width="58" height="58" viewBox="0 0 24 24">
  <defs>
    <linearGradient id="a" x1="50%" x2="50%" y1="0%" y2="100%">
      <stop offset="0%" stop-color="#57d163"/>
      <stop offset="100%" stop-color="#25d366"/>
    </linearGradient>
  </defs>
  <circle cx="12" cy="12" r="11" fill="url(#a)"/>
  <path fill="#fff" d="M12.012 5.07c-3.822 0-6.93 3.11-6.93 6.932 0 1.22.318 2.416.924 3.466l-.984 3.593 3.676-.964a6.892 6.892 0 0 0 3.314.837h.003c3.822 0 6.93-3.11 6.93-6.932 0-1.85-.72-3.592-2.03-4.902a6.883 6.883 0 0 0-4.903-2.031zm0 1.107c3.212 0 5.827 2.616 5.827 5.825 0 1.554-.605 3.015-1.705 4.115s-2.56 1.705-4.116 1.705h-.002a5.8 5.8 0 0 1-2.96-.81l-.212-.126-2.197.576.586-2.143-.139-.22a5.808 5.808 0 0 1-.882-3.1c0-3.208 2.615-5.822 5.825-5.822zm-2.457 2.142c-.134 0-.353.05-.538.252-.185.202-.707.69-.707 1.684s.723 1.953.824 2.088c.1.135 1.42 2.17 3.442 3.044.48.208.855.333 1.147.426.483.153.924.132 1.272.08.388-.058 1.196-.489 1.364-.96.168-.47.168-.875.118-.96-.05-.084-.185-.134-.387-.235-.202-.1-.196-.489-1.254-.925l-.27-.126c-.1-.05-.202-.084-.303.067-.101.152-.455.573-.556.69-.101.118-.202.135-.404.034-.202-.1-.853-.315-1.625-1.004-.6-.535-1.005-1.196-1.122-1.398-.118-.202-.013-.31.088-.412.09-.092.202-.236.303-.354.1-.118.134-.202.202-.337.067-.135.034-.253-.017-.354-.05-.1-.455-1.1-.623-1.507-.164-.396-.328-.342-.45-.348-.114-.006-.248-.007-.383-.007z"/>
</svg>
